# xmcd CD database file
#
# Track frame offsets:
#	150
#	22430
#	45117
#	72274
#	94712
#	119003
#	136601
#	158707
#	177459
#	199171
#	216456
#	235861
#	264121
#	284638
#	307204
#	329589
#
# Disc length: 4635 seconds
#
# Revision: 3
# Processed by: cddbd v1.5.2PL0 Copyright (c) Steve Scherf et al.
# Submitted via: CDex 1.70beta3
#
DISCID=f5121910
DTITLE=SOPHIA - 10th ANNIVERSARY BEST
DYEAR=2005
DGENRE=JPop
TTITLE0=MY SELF
TTITLE1=ヒマワリ
TTITLE2=little cloud
TTITLE3=My only season
TTITLE4=街 ～Single version～
TTITLE5=蜘蛛と蝙蝠
TTITLE6=坂道
TTITLE7=航海
TTITLE8=黒いブーツ ～oh my friend～
TTITLE9=ミサイル
TTITLE10=happy end
TTITLE11=Thank you
TTITLE12=－僕はここにいる－
TTITLE13=夢
TTITLE14=情熱のプライド
TTITLE15=青い季節
EXTD=YEAR: 2005
EXTT0=
EXTT1=
EXTT2=
EXTT3=
EXTT4=
EXTT5=
EXTT6=
EXTT7=
EXTT8=
EXTT9=
EXTT10=
EXTT11=
EXTT12=
EXTT13=
EXTT14=
EXTT15=
PLAYORDER=
